<mxfile>
    <diagram id="SUwKpLQdhwAm_L0UbPS7" name="Page-1">
        <mxGraphModel dx="6358" dy="1861" grid="1" gridSize="10" guides="1" tooltips="1" connect="1" arrows="1" fold="1" page="1" pageScale="1" pageWidth="1169" pageHeight="827" math="1" shadow="0">
            <root>
                <mxCell id="0"/>
                <mxCell id="1" parent="0"/>
                <mxCell id="2" value="构造估计量" style="rounded=0;whiteSpace=wrap;html=1;fontSize=18;" parent="1" vertex="1">
                    <mxGeometry x="-780" y="95" width="120" height="60" as="geometry"/>
                </mxCell>
                <mxCell id="3" value="矩估计法" style="rounded=0;whiteSpace=wrap;html=1;fontSize=18;" parent="1" vertex="1">
                    <mxGeometry x="230" y="800" width="120" height="60" as="geometry"/>
                </mxCell>
                <mxCell id="4" value="最大似然估计法" style="rounded=0;whiteSpace=wrap;html=1;fontSize=18;" parent="1" vertex="1">
                    <mxGeometry x="390" y="800" width="120" height="60" as="geometry"/>
                </mxCell>
                <mxCell id="7" value="" style="edgeStyle=orthogonalEdgeStyle;rounded=0;orthogonalLoop=1;jettySize=auto;html=1;fontSize=18;" parent="1" source="5" target="6" edge="1">
                    <mxGeometry relative="1" as="geometry"/>
                </mxCell>
                <mxCell id="5" value="大数定律" style="rounded=0;whiteSpace=wrap;html=1;fontSize=18;" parent="1" vertex="1">
                    <mxGeometry x="260" y="970" width="120" height="60" as="geometry"/>
                </mxCell>
                <mxCell id="6" value="样本矩、样本矩的连续函数依概率收敛于相应的总体矩、总体矩的连续函数" style="whiteSpace=wrap;html=1;rounded=0;fontSize=18;" parent="1" vertex="1">
                    <mxGeometry x="460" y="970" width="430" height="60" as="geometry"/>
                </mxCell>
                <mxCell id="8" value="估计量的三个评判标准" style="rounded=0;whiteSpace=wrap;html=1;fontSize=18;" parent="1" vertex="1">
                    <mxGeometry x="-780" y="190" width="130" height="45" as="geometry"/>
                </mxCell>
                <mxCell id="10" value="无偏性" style="rounded=0;whiteSpace=wrap;html=1;fontSize=18;" parent="1" vertex="1">
                    <mxGeometry x="-10" y="710" width="70" height="40" as="geometry"/>
                </mxCell>
                <mxCell id="11" value="有效性" style="rounded=0;whiteSpace=wrap;html=1;fontSize=18;" parent="1" vertex="1">
                    <mxGeometry x="-210" y="595" width="70" height="40" as="geometry"/>
                </mxCell>
                <mxCell id="12" value="一致性" style="rounded=0;whiteSpace=wrap;html=1;fontSize=18;" parent="1" vertex="1">
                    <mxGeometry x="170" y="710" width="70" height="40" as="geometry"/>
                </mxCell>
                <mxCell id="13" value="依概率收敛" style="rounded=0;whiteSpace=wrap;html=1;fontSize=18;" parent="1" vertex="1">
                    <mxGeometry x="-780" y="20" width="120" height="40" as="geometry"/>
                </mxCell>
                <mxCell id="14" value="随机变量$$X_n$$" style="whiteSpace=wrap;html=1;rounded=0;flipH=1;fontSize=18;" parent="1" vertex="1">
                    <mxGeometry x="-1020" y="95" width="200" height="110" as="geometry"/>
                </mxCell>
                <mxCell id="16" value="切比雪夫大数定律" style="rounded=0;whiteSpace=wrap;html=1;fontSize=18;" parent="1" vertex="1">
                    <mxGeometry x="300" y="1080" width="120" height="60" as="geometry"/>
                </mxCell>
                <mxCell id="17" value="伯努利大数定律" style="rounded=0;whiteSpace=wrap;html=1;fontSize=18;" parent="1" vertex="1">
                    <mxGeometry x="300" y="1169" width="120" height="60" as="geometry"/>
                </mxCell>
                <mxCell id="18" value="辛钦大数定律" style="rounded=0;whiteSpace=wrap;html=1;fontSize=18;" parent="1" vertex="1">
                    <mxGeometry x="300" y="1270" width="120" height="60" as="geometry"/>
                </mxCell>
                <mxCell id="21" value="独立同分布随机变量的和" style="rounded=0;whiteSpace=wrap;html=1;fontSize=18;" parent="1" vertex="1">
                    <mxGeometry x="-260" y="1120" width="170" height="60" as="geometry"/>
                </mxCell>
                <mxCell id="23" value="独立同分布中心极限定理" style="rounded=0;whiteSpace=wrap;html=1;fontSize=18;" parent="1" vertex="1">
                    <mxGeometry x="-210" y="1241" width="220" height="60" as="geometry"/>
                </mxCell>
                <mxCell id="24" value="二项分布以正态分布为其极限分布定理" style="rounded=0;whiteSpace=wrap;html=1;fontSize=18;" parent="1" vertex="1">
                    <mxGeometry x="-210" y="1331" width="220" height="60" as="geometry"/>
                </mxCell>
                <mxCell id="30" value="矩" style="rounded=0;whiteSpace=wrap;html=1;fontSize=18;" parent="1" vertex="1">
                    <mxGeometry x="10" y="930" width="120" height="60" as="geometry"/>
                </mxCell>
                <mxCell id="31" value="协方差" style="rounded=0;whiteSpace=wrap;html=1;fontSize=18;" parent="1" vertex="1">
                    <mxGeometry x="70" y="850" width="120" height="60" as="geometry"/>
                </mxCell>
                <mxCell id="32" value="相关系数" style="rounded=0;whiteSpace=wrap;html=1;fontSize=18;" parent="1" vertex="1">
                    <mxGeometry x="70" y="1000" width="120" height="60" as="geometry"/>
                </mxCell>
                <mxCell id="36" value="" style="group;fontSize=18;" parent="1" vertex="1" connectable="0">
                    <mxGeometry x="-510" y="680" width="240" height="100" as="geometry"/>
                </mxCell>
                <mxCell id="27" value="期望" style="rounded=0;whiteSpace=wrap;html=1;fontSize=18;" parent="36" vertex="1">
                    <mxGeometry y="20" width="120" height="60" as="geometry"/>
                </mxCell>
                <mxCell id="34" value="数学期望是描述随机变量平均取值状况特征的指标，它刻画随机变量的一切可能值的集中位置" style="rounded=0;whiteSpace=wrap;html=1;fontSize=18;" parent="36" vertex="1">
                    <mxGeometry x="120" width="120" height="100" as="geometry"/>
                </mxCell>
                <mxCell id="43" value="" style="group;fontSize=18;" parent="1" vertex="1" connectable="0">
                    <mxGeometry x="-510" y="810" width="240" height="100" as="geometry"/>
                </mxCell>
                <mxCell id="44" value="方差" style="rounded=0;whiteSpace=wrap;html=1;fontSize=18;" parent="43" vertex="1">
                    <mxGeometry y="20" width="120" height="60" as="geometry"/>
                </mxCell>
                <mxCell id="45" value="方差是刻画随机变量与其期望值偏离程度的量" style="rounded=0;whiteSpace=wrap;html=1;fontSize=18;" parent="43" vertex="1">
                    <mxGeometry x="120" width="120" height="100" as="geometry"/>
                </mxCell>
                <mxCell id="46" value="随机变量的数字特征" style="rounded=0;whiteSpace=wrap;html=1;fontSize=18;" parent="1" vertex="1">
                    <mxGeometry x="-780" y="570" width="120" height="60" as="geometry"/>
                </mxCell>
                <mxCell id="47" value="" style="group;fontSize=18;" parent="1" vertex="1" connectable="0">
                    <mxGeometry x="-904" y="770" width="320" height="320" as="geometry"/>
                </mxCell>
                <mxCell id="37" value="" style="ellipse;whiteSpace=wrap;html=1;aspect=fixed;fontSize=18;" parent="47" vertex="1">
                    <mxGeometry width="320" height="320" as="geometry"/>
                </mxCell>
                <mxCell id="28" value="方差" style="rounded=0;whiteSpace=wrap;html=1;fontSize=18;" parent="47" vertex="1">
                    <mxGeometry x="50" y="57" width="120" height="60" as="geometry"/>
                </mxCell>
                <mxCell id="29" value="标准差" style="rounded=0;whiteSpace=wrap;html=1;fontSize=18;" parent="47" vertex="1">
                    <mxGeometry x="40" y="180" width="120" height="60" as="geometry"/>
                </mxCell>
                <mxCell id="38" value="切比雪夫不等式" style="rounded=0;whiteSpace=wrap;html=1;fontSize=18;" parent="47" vertex="1">
                    <mxGeometry x="180" y="130" width="120" height="60" as="geometry"/>
                </mxCell>
                <mxCell id="48" value="离散型随机变量的重要分布" style="rounded=0;whiteSpace=wrap;html=1;fontSize=18;" parent="1" vertex="1">
                    <mxGeometry x="-640" y="1090" width="200" height="60" as="geometry"/>
                </mxCell>
                <mxCell id="49" value="离散型随机变量函数" style="rounded=0;whiteSpace=wrap;html=1;fontSize=18;" parent="1" vertex="1">
                    <mxGeometry x="-640" y="1180" width="200" height="60" as="geometry"/>
                </mxCell>
                <mxCell id="50" value="概率密度的积分问题" style="rounded=0;whiteSpace=wrap;html=1;fontSize=18;" parent="1" vertex="1">
                    <mxGeometry x="-1170" y="430" width="230" height="60" as="geometry"/>
                </mxCell>
                <mxCell id="51" value="随机变量分解为重要分布" style="rounded=0;whiteSpace=wrap;html=1;fontSize=18;" parent="1" vertex="1">
                    <mxGeometry x="-1470" y="1080" width="290" height="60" as="geometry"/>
                </mxCell>
                <mxCell id="53" value="在计算连续型随机变量的数学特征时,需要熟练掌握积分的运算" style="rounded=0;whiteSpace=wrap;html=1;fillColor=#fa6800;strokeColor=#C73500;fontColor=#ffffff;fontSize=18;" parent="1" vertex="1">
                    <mxGeometry x="-1060" y="940" width="120" height="200" as="geometry"/>
                </mxCell>
                <mxCell id="54" value="分布函数法" style="rounded=0;whiteSpace=wrap;html=1;fontSize=18;" parent="1" vertex="1">
                    <mxGeometry x="-1330" y="790" width="120" height="60" as="geometry"/>
                </mxCell>
                <mxCell id="55" value="连续型重要分布" style="rounded=0;whiteSpace=wrap;html=1;fontSize=18;" parent="1" vertex="1">
                    <mxGeometry x="-640" y="1275" width="200" height="60" as="geometry"/>
                </mxCell>
                <mxCell id="56" value="连续型随机变量函数" style="rounded=0;whiteSpace=wrap;html=1;fontSize=18;" parent="1" vertex="1">
                    <mxGeometry x="-640" y="1380" width="200" height="60" as="geometry"/>
                </mxCell>
                <mxCell id="57" value="对称性" style="rounded=0;whiteSpace=wrap;html=1;fontSize=18;" parent="1" vertex="1">
                    <mxGeometry x="-1490" y="535" width="120" height="60" as="geometry"/>
                </mxCell>
                <mxCell id="59" value="离散型分布" style="shape=table;html=1;whiteSpace=wrap;startSize=30;container=1;collapsible=0;childLayout=tableLayout;fixedRows=1;rowLines=0;fontStyle=1;align=center;fontSize=18;" parent="1" vertex="1">
                    <mxGeometry x="-1400" y="-670" width="110" height="180" as="geometry"/>
                </mxCell>
                <mxCell id="83" value="" style="shape=partialRectangle;html=1;whiteSpace=wrap;collapsible=0;dropTarget=0;pointerEvents=0;fillColor=none;top=0;left=0;bottom=1;right=0;points=[[0,0.5],[1,0.5]];portConstraint=eastwest;fontSize=18;" parent="59" vertex="1">
                    <mxGeometry y="30" width="110" height="30" as="geometry"/>
                </mxCell>
                <mxCell id="84" value="" style="shape=partialRectangle;html=1;whiteSpace=wrap;connectable=0;fillColor=none;top=0;left=0;bottom=0;right=0;overflow=hidden;fontSize=18;" parent="83" vertex="1">
                    <mxGeometry width="22" height="30" as="geometry"/>
                </mxCell>
                <mxCell id="85" value="0-1 分布" style="shape=partialRectangle;html=1;whiteSpace=wrap;connectable=0;fillColor=none;top=0;left=0;bottom=0;right=0;align=left;spacingLeft=6;overflow=hidden;fontSize=18;" parent="83" vertex="1">
                    <mxGeometry x="22" width="88" height="30" as="geometry"/>
                </mxCell>
                <mxCell id="60" value="" style="shape=partialRectangle;html=1;whiteSpace=wrap;collapsible=0;dropTarget=0;pointerEvents=0;fillColor=none;top=0;left=0;bottom=1;right=0;points=[[0,0.5],[1,0.5]];portConstraint=eastwest;fontSize=18;" parent="59" vertex="1">
                    <mxGeometry y="60" width="110" height="30" as="geometry"/>
                </mxCell>
                <mxCell id="61" value="" style="shape=partialRectangle;html=1;whiteSpace=wrap;connectable=0;fillColor=none;top=0;left=0;bottom=0;right=0;overflow=hidden;fontSize=18;" parent="60" vertex="1">
                    <mxGeometry width="22" height="30" as="geometry"/>
                </mxCell>
                <mxCell id="62" value="二项分布" style="shape=partialRectangle;html=1;whiteSpace=wrap;connectable=0;fillColor=none;top=0;left=0;bottom=0;right=0;align=left;spacingLeft=6;overflow=hidden;fontSize=18;" parent="60" vertex="1">
                    <mxGeometry x="22" width="88" height="30" as="geometry"/>
                </mxCell>
                <mxCell id="92" value="" style="shape=partialRectangle;html=1;whiteSpace=wrap;collapsible=0;dropTarget=0;pointerEvents=0;fillColor=none;top=0;left=0;bottom=1;right=0;points=[[0,0.5],[1,0.5]];portConstraint=eastwest;fontSize=18;" parent="59" vertex="1">
                    <mxGeometry y="90" width="110" height="30" as="geometry"/>
                </mxCell>
                <mxCell id="93" value="" style="shape=partialRectangle;html=1;whiteSpace=wrap;connectable=0;fillColor=none;top=0;left=0;bottom=0;right=0;overflow=hidden;fontSize=18;" parent="92" vertex="1">
                    <mxGeometry width="22" height="30" as="geometry"/>
                </mxCell>
                <mxCell id="94" value="几何分布" style="shape=partialRectangle;html=1;whiteSpace=wrap;connectable=0;fillColor=none;top=0;left=0;bottom=0;right=0;align=left;spacingLeft=6;overflow=hidden;fontSize=18;" parent="92" vertex="1">
                    <mxGeometry x="22" width="88" height="30" as="geometry"/>
                </mxCell>
                <mxCell id="95" value="" style="shape=partialRectangle;html=1;whiteSpace=wrap;collapsible=0;dropTarget=0;pointerEvents=0;fillColor=none;top=0;left=0;bottom=1;right=0;points=[[0,0.5],[1,0.5]];portConstraint=eastwest;fontSize=18;" parent="59" vertex="1">
                    <mxGeometry y="120" width="110" height="30" as="geometry"/>
                </mxCell>
                <mxCell id="96" value="" style="shape=partialRectangle;html=1;whiteSpace=wrap;connectable=0;fillColor=none;top=0;left=0;bottom=0;right=0;overflow=hidden;fontSize=18;" parent="95" vertex="1">
                    <mxGeometry width="22" height="30" as="geometry"/>
                </mxCell>
                <mxCell id="97" value="超几何分布" style="shape=partialRectangle;html=1;whiteSpace=wrap;connectable=0;fillColor=none;top=0;left=0;bottom=0;right=0;align=left;spacingLeft=6;overflow=hidden;fontSize=18;" parent="95" vertex="1">
                    <mxGeometry x="22" width="88" height="30" as="geometry"/>
                </mxCell>
                <mxCell id="172" style="edgeStyle=orthogonalEdgeStyle;rounded=0;orthogonalLoop=1;jettySize=auto;html=1;exitX=0;exitY=0.5;exitDx=0;exitDy=0;entryX=0;entryY=0.5;entryDx=0;entryDy=0;" parent="59" source="98" target="60" edge="1">
                    <mxGeometry relative="1" as="geometry">
                        <Array as="points">
                            <mxPoint x="-220" y="165"/>
                            <mxPoint x="-220" y="75"/>
                        </Array>
                    </mxGeometry>
                </mxCell>
                <mxCell id="98" value="" style="shape=partialRectangle;html=1;whiteSpace=wrap;collapsible=0;dropTarget=0;pointerEvents=0;fillColor=none;top=0;left=0;bottom=1;right=0;points=[[0,0.5],[1,0.5]];portConstraint=eastwest;fontSize=18;" parent="59" vertex="1">
                    <mxGeometry y="150" width="110" height="30" as="geometry"/>
                </mxCell>
                <mxCell id="99" value="" style="shape=partialRectangle;html=1;whiteSpace=wrap;connectable=0;fillColor=none;top=0;left=0;bottom=0;right=0;overflow=hidden;fontSize=18;" parent="98" vertex="1">
                    <mxGeometry width="22" height="30" as="geometry"/>
                </mxCell>
                <mxCell id="100" value="泊松分布" style="shape=partialRectangle;html=1;whiteSpace=wrap;connectable=0;fillColor=none;top=0;left=0;bottom=0;right=0;align=left;spacingLeft=6;overflow=hidden;fontSize=18;" parent="98" vertex="1">
                    <mxGeometry x="22" width="88" height="30" as="geometry"/>
                </mxCell>
                <mxCell id="101" value="连续型分布" style="shape=table;html=1;whiteSpace=wrap;startSize=30;container=1;collapsible=0;childLayout=tableLayout;fixedRows=1;rowLines=0;fontStyle=1;align=center;fontSize=18;" parent="1" vertex="1">
                    <mxGeometry x="-1250" y="-670" width="100" height="120" as="geometry"/>
                </mxCell>
                <mxCell id="102" value="" style="shape=partialRectangle;html=1;whiteSpace=wrap;collapsible=0;dropTarget=0;pointerEvents=0;fillColor=none;top=0;left=0;bottom=1;right=0;points=[[0,0.5],[1,0.5]];portConstraint=eastwest;fontSize=18;" parent="101" vertex="1">
                    <mxGeometry y="30" width="100" height="30" as="geometry"/>
                </mxCell>
                <mxCell id="103" value="" style="shape=partialRectangle;html=1;whiteSpace=wrap;connectable=0;fillColor=none;top=0;left=0;bottom=0;right=0;overflow=hidden;fontSize=18;" parent="102" vertex="1">
                    <mxGeometry width="10" height="30" as="geometry"/>
                </mxCell>
                <mxCell id="104" value="均匀分布" style="shape=partialRectangle;html=1;whiteSpace=wrap;connectable=0;fillColor=none;top=0;left=0;bottom=0;right=0;align=left;spacingLeft=6;overflow=hidden;fontSize=18;" parent="102" vertex="1">
                    <mxGeometry x="10" width="90" height="30" as="geometry"/>
                </mxCell>
                <mxCell id="105" value="" style="shape=partialRectangle;html=1;whiteSpace=wrap;collapsible=0;dropTarget=0;pointerEvents=0;fillColor=none;top=0;left=0;bottom=1;right=0;points=[[0,0.5],[1,0.5]];portConstraint=eastwest;fontSize=18;" parent="101" vertex="1">
                    <mxGeometry y="60" width="100" height="30" as="geometry"/>
                </mxCell>
                <mxCell id="106" value="" style="shape=partialRectangle;html=1;whiteSpace=wrap;connectable=0;fillColor=none;top=0;left=0;bottom=0;right=0;overflow=hidden;fontSize=18;" parent="105" vertex="1">
                    <mxGeometry width="10" height="30" as="geometry"/>
                </mxCell>
                <mxCell id="107" value="正态分布" style="shape=partialRectangle;html=1;whiteSpace=wrap;connectable=0;fillColor=none;top=0;left=0;bottom=0;right=0;align=left;spacingLeft=6;overflow=hidden;fontSize=18;" parent="105" vertex="1">
                    <mxGeometry x="10" width="90" height="30" as="geometry"/>
                </mxCell>
                <mxCell id="108" value="" style="shape=partialRectangle;html=1;whiteSpace=wrap;collapsible=0;dropTarget=0;pointerEvents=0;fillColor=none;top=0;left=0;bottom=1;right=0;points=[[0,0.5],[1,0.5]];portConstraint=eastwest;fontSize=18;" parent="101" vertex="1">
                    <mxGeometry y="90" width="100" height="30" as="geometry"/>
                </mxCell>
                <mxCell id="109" value="" style="shape=partialRectangle;html=1;whiteSpace=wrap;connectable=0;fillColor=none;top=0;left=0;bottom=0;right=0;overflow=hidden;fontSize=18;" parent="108" vertex="1">
                    <mxGeometry width="10" height="30" as="geometry"/>
                </mxCell>
                <mxCell id="110" value="指数分布" style="shape=partialRectangle;html=1;whiteSpace=wrap;connectable=0;fillColor=none;top=0;left=0;bottom=0;right=0;align=left;spacingLeft=6;overflow=hidden;fontSize=18;" parent="108" vertex="1">
                    <mxGeometry x="10" width="90" height="30" as="geometry"/>
                </mxCell>
                <mxCell id="119" value="" style="edgeStyle=orthogonalEdgeStyle;rounded=0;orthogonalLoop=1;jettySize=auto;html=1;fontSize=18;" parent="1" source="117" target="118" edge="1">
                    <mxGeometry relative="1" as="geometry"/>
                </mxCell>
                <mxCell id="117" value="随机试验" style="rounded=0;whiteSpace=wrap;html=1;fontSize=18;" parent="1" vertex="1">
                    <mxGeometry x="-2570" y="-370" width="120" height="60" as="geometry"/>
                </mxCell>
                <mxCell id="121" value="" style="edgeStyle=orthogonalEdgeStyle;rounded=0;orthogonalLoop=1;jettySize=auto;html=1;fontSize=18;" parent="1" source="118" target="120" edge="1">
                    <mxGeometry relative="1" as="geometry"/>
                </mxCell>
                <mxCell id="118" value="随机事件" style="whiteSpace=wrap;html=1;rounded=0;fontSize=18;" parent="1" vertex="1">
                    <mxGeometry x="-2370" y="-370" width="120" height="60" as="geometry"/>
                </mxCell>
                <mxCell id="123" value="" style="edgeStyle=orthogonalEdgeStyle;rounded=0;orthogonalLoop=1;jettySize=auto;html=1;fontSize=18;" parent="1" source="120" target="122" edge="1">
                    <mxGeometry relative="1" as="geometry"/>
                </mxCell>
                <mxCell id="120" value="基本事件" style="whiteSpace=wrap;html=1;rounded=0;fontSize=18;" parent="1" vertex="1">
                    <mxGeometry x="-2170" y="-370" width="120" height="60" as="geometry"/>
                </mxCell>
                <mxCell id="125" value="" style="edgeStyle=orthogonalEdgeStyle;rounded=0;orthogonalLoop=1;jettySize=auto;html=1;fontSize=18;" parent="1" source="122" target="124" edge="1">
                    <mxGeometry relative="1" as="geometry"/>
                </mxCell>
                <mxCell id="122" value="样本点" style="whiteSpace=wrap;html=1;rounded=0;fontSize=18;" parent="1" vertex="1">
                    <mxGeometry x="-1970" y="-370" width="120" height="60" as="geometry"/>
                </mxCell>
                <mxCell id="124" value="样本空间" style="whiteSpace=wrap;html=1;rounded=0;fontSize=18;" parent="1" vertex="1">
                    <mxGeometry x="-1770" y="-370" width="120" height="60" as="geometry"/>
                </mxCell>
                <mxCell id="126" value="完备事件组" style="rounded=0;whiteSpace=wrap;html=1;fontSize=18;" parent="1" vertex="1">
                    <mxGeometry x="-2370" y="-270" width="120" height="60" as="geometry"/>
                </mxCell>
                <mxCell id="127" value="吸收率&lt;br style=&quot;font-size: 18px;&quot;&gt;交换律&lt;br style=&quot;font-size: 18px;&quot;&gt;结合律&lt;br style=&quot;font-size: 18px;&quot;&gt;分配率" style="rounded=0;whiteSpace=wrap;html=1;fontSize=18;" parent="1" vertex="1">
                    <mxGeometry x="-2320" y="220" width="130" height="130" as="geometry"/>
                </mxCell>
                <mxCell id="128" value="概率" style="rounded=0;whiteSpace=wrap;html=1;fontSize=36;" parent="1" vertex="1">
                    <mxGeometry x="-3140" y="-190" width="120" height="60" as="geometry"/>
                </mxCell>
                <mxCell id="129" value="古典概型" style="rounded=0;whiteSpace=wrap;html=1;fontSize=16;" parent="1" vertex="1">
                    <mxGeometry x="-2820" y="385" width="120" height="60" as="geometry"/>
                </mxCell>
                <mxCell id="130" value="几何概型" style="rounded=0;whiteSpace=wrap;html=1;fontSize=16;" parent="1" vertex="1">
                    <mxGeometry x="-2820" y="465" width="120" height="60" as="geometry"/>
                </mxCell>
                <mxCell id="131" value="概率性质" style="rounded=0;whiteSpace=wrap;html=1;fontSize=16;" parent="1" vertex="1">
                    <mxGeometry x="-2980" y="-240" width="120" height="60" as="geometry"/>
                </mxCell>
                <mxCell id="132" value="概率公式" style="rounded=0;whiteSpace=wrap;html=1;fontSize=16;" parent="1" vertex="1">
                    <mxGeometry x="-2980" y="-130" width="120" height="60" as="geometry"/>
                </mxCell>
                <mxCell id="133" value="条件概率" style="rounded=0;whiteSpace=wrap;html=1;fontSize=16;" parent="1" vertex="1">
                    <mxGeometry x="-3140" y="-30" width="120" height="60" as="geometry"/>
                </mxCell>
                <mxCell id="134" value="全概率" style="rounded=0;whiteSpace=wrap;html=1;fontSize=16;" parent="1" vertex="1">
                    <mxGeometry x="-3140" y="110" width="120" height="60" as="geometry"/>
                </mxCell>
                <mxCell id="137" style="rounded=0;orthogonalLoop=1;jettySize=auto;html=1;entryX=0;entryY=0.5;entryDx=0;entryDy=0;exitX=1;exitY=0.5;exitDx=0;exitDy=0;" parent="1" source="135" target="126" edge="1">
                    <mxGeometry relative="1" as="geometry"/>
                </mxCell>
                <mxCell id="135" value="全概率公式" style="rounded=0;whiteSpace=wrap;html=1;fontSize=16;" parent="1" vertex="1">
                    <mxGeometry x="-2840" y="50" width="190" height="60" as="geometry"/>
                </mxCell>
                <mxCell id="138" style="edgeStyle=none;rounded=0;orthogonalLoop=1;jettySize=auto;html=1;exitX=1;exitY=0.25;exitDx=0;exitDy=0;" parent="1" source="136" target="126" edge="1">
                    <mxGeometry relative="1" as="geometry"/>
                </mxCell>
                <mxCell id="136" value="贝叶斯公式(逆概率公式)" style="rounded=0;whiteSpace=wrap;html=1;fontSize=16;" parent="1" vertex="1">
                    <mxGeometry x="-2840" y="140" width="190" height="60" as="geometry"/>
                </mxCell>
                <mxCell id="139" value="独立试验" style="rounded=0;whiteSpace=wrap;html=1;fontSize=16;" parent="1" vertex="1">
                    <mxGeometry x="-2800" y="-370" width="120" height="60" as="geometry"/>
                </mxCell>
                <mxCell id="140" value="独立重复试验" style="rounded=0;whiteSpace=wrap;html=1;fontSize=16;" parent="1" vertex="1">
                    <mxGeometry x="-2800" y="-460" width="120" height="60" as="geometry"/>
                </mxCell>
                <mxCell id="141" value="伯努利试验" style="rounded=0;whiteSpace=wrap;html=1;fontSize=16;" parent="1" vertex="1">
                    <mxGeometry x="-2800" y="-550" width="120" height="60" as="geometry"/>
                </mxCell>
                <mxCell id="142" value="随机变量序列" style="rounded=0;whiteSpace=wrap;html=1;fontSize=18;" parent="1" vertex="1">
                    <mxGeometry x="-2520" y="-560" width="120" height="60" as="geometry"/>
                </mxCell>
                <mxCell id="143" value="随机变量 &amp;amp; 随机变量序列的区别" style="rounded=0;whiteSpace=wrap;html=1;fontSize=18;" parent="1" vertex="1">
                    <mxGeometry x="-2900" y="-680" width="240" height="60" as="geometry"/>
                </mxCell>
                <mxCell id="144" value="随机变量" style="rounded=0;whiteSpace=wrap;html=1;fontSize=18;" parent="1" vertex="1">
                    <mxGeometry x="-2370" y="-481" width="120" height="67" as="geometry"/>
                </mxCell>
                <mxCell id="145" value="随机变量函数" style="rounded=0;whiteSpace=wrap;html=1;fontSize=18;" parent="1" vertex="1">
                    <mxGeometry x="-2520" y="-650" width="120" height="60" as="geometry"/>
                </mxCell>
                <mxCell id="147" value="分布函数" style="rounded=0;whiteSpace=wrap;html=1;fontSize=16;" parent="1" vertex="1">
                    <mxGeometry x="-2370" y="-561" width="120" height="60" as="geometry"/>
                </mxCell>
                <mxCell id="148" value="分布列/分布律/概率分布" style="rounded=0;whiteSpace=wrap;html=1;fontSize=16;" parent="1" vertex="1">
                    <mxGeometry x="-2210" y="-611" width="120" height="60" as="geometry"/>
                </mxCell>
                <mxCell id="154" value="概率密度函数" style="rounded=0;whiteSpace=wrap;html=1;fontSize=16;" parent="1" vertex="1">
                    <mxGeometry x="-2210" y="-534" width="120" height="60" as="geometry"/>
                </mxCell>
                <mxCell id="155" value="" style="shape=table;html=1;whiteSpace=wrap;startSize=0;container=1;collapsible=0;childLayout=tableLayout;fontSize=16;" parent="1" vertex="1">
                    <mxGeometry x="-1490" y="-480" width="540" height="380" as="geometry"/>
                </mxCell>
                <mxCell id="156" value="" style="shape=partialRectangle;html=1;whiteSpace=wrap;collapsible=0;dropTarget=0;pointerEvents=0;fillColor=none;top=0;left=0;bottom=0;right=0;points=[[0,0.5],[1,0.5]];portConstraint=eastwest;fontSize=16;" parent="155" vertex="1">
                    <mxGeometry width="540" height="96" as="geometry"/>
                </mxCell>
                <mxCell id="157" value="随机变量" style="shape=partialRectangle;html=1;whiteSpace=wrap;connectable=0;fillColor=none;top=0;left=0;bottom=0;right=0;overflow=hidden;fontSize=16;" parent="156" vertex="1">
                    <mxGeometry width="180" height="96" as="geometry"/>
                </mxCell>
                <mxCell id="158" value="离散型随机变量" style="shape=partialRectangle;html=1;whiteSpace=wrap;connectable=0;fillColor=none;top=0;left=0;bottom=0;right=0;overflow=hidden;fontSize=16;" parent="156" vertex="1">
                    <mxGeometry x="180" width="180" height="96" as="geometry"/>
                </mxCell>
                <mxCell id="159" value="连续型随机变量" style="shape=partialRectangle;html=1;whiteSpace=wrap;connectable=0;fillColor=none;top=0;left=0;bottom=0;right=0;overflow=hidden;fontSize=16;" parent="156" vertex="1">
                    <mxGeometry x="360" width="180" height="96" as="geometry"/>
                </mxCell>
                <mxCell id="160" value="" style="shape=partialRectangle;html=1;whiteSpace=wrap;collapsible=0;dropTarget=0;pointerEvents=0;fillColor=none;top=0;left=0;bottom=0;right=0;points=[[0,0.5],[1,0.5]];portConstraint=eastwest;fontSize=16;" parent="155" vertex="1">
                    <mxGeometry y="96" width="540" height="94" as="geometry"/>
                </mxCell>
                <mxCell id="161" value="一维随机变量" style="shape=partialRectangle;html=1;whiteSpace=wrap;connectable=0;fillColor=none;top=0;left=0;bottom=0;right=0;overflow=hidden;fontSize=16;" parent="160" vertex="1">
                    <mxGeometry width="180" height="94" as="geometry"/>
                </mxCell>
                <mxCell id="162" value="" style="shape=partialRectangle;html=1;whiteSpace=wrap;connectable=0;fillColor=none;top=0;left=0;bottom=0;right=0;overflow=hidden;fontSize=16;" parent="160" vertex="1">
                    <mxGeometry x="180" width="180" height="94" as="geometry"/>
                </mxCell>
                <mxCell id="163" value="" style="shape=partialRectangle;html=1;whiteSpace=wrap;connectable=0;fillColor=none;top=0;left=0;bottom=0;right=0;overflow=hidden;fontSize=16;" parent="160" vertex="1">
                    <mxGeometry x="360" width="180" height="94" as="geometry"/>
                </mxCell>
                <mxCell id="164" value="" style="shape=partialRectangle;html=1;whiteSpace=wrap;collapsible=0;dropTarget=0;pointerEvents=0;fillColor=none;top=0;left=0;bottom=0;right=0;points=[[0,0.5],[1,0.5]];portConstraint=eastwest;fontSize=16;" parent="155" vertex="1">
                    <mxGeometry y="190" width="540" height="96" as="geometry"/>
                </mxCell>
                <mxCell id="165" value="二维随机变量" style="shape=partialRectangle;html=1;whiteSpace=wrap;connectable=0;fillColor=none;top=0;left=0;bottom=0;right=0;overflow=hidden;fontSize=16;" parent="164" vertex="1">
                    <mxGeometry width="180" height="96" as="geometry"/>
                </mxCell>
                <mxCell id="166" value="概率分布&lt;br&gt;边缘分布&lt;br&gt;条件分布" style="shape=partialRectangle;html=1;whiteSpace=wrap;connectable=0;fillColor=none;top=0;left=0;bottom=0;right=0;overflow=hidden;fontSize=16;" parent="164" vertex="1">
                    <mxGeometry x="180" width="180" height="96" as="geometry"/>
                </mxCell>
                <mxCell id="167" value="概率密度&lt;br&gt;边缘密度&lt;br&gt;条件密度" style="shape=partialRectangle;html=1;whiteSpace=wrap;connectable=0;fillColor=none;top=0;left=0;bottom=0;right=0;overflow=hidden;fontSize=16;" parent="164" vertex="1">
                    <mxGeometry x="360" width="180" height="96" as="geometry"/>
                </mxCell>
                <mxCell id="168" value="" style="shape=partialRectangle;html=1;whiteSpace=wrap;collapsible=0;dropTarget=0;pointerEvents=0;fillColor=none;top=0;left=0;bottom=0;right=0;points=[[0,0.5],[1,0.5]];portConstraint=eastwest;fontSize=16;" parent="155" vertex="1">
                    <mxGeometry y="286" width="540" height="94" as="geometry"/>
                </mxCell>
                <mxCell id="169" value="多维随机变量" style="shape=partialRectangle;html=1;whiteSpace=wrap;connectable=0;fillColor=none;top=0;left=0;bottom=0;right=0;overflow=hidden;fontSize=16;" parent="168" vertex="1">
                    <mxGeometry width="180" height="94" as="geometry"/>
                </mxCell>
                <mxCell id="170" value="" style="shape=partialRectangle;html=1;whiteSpace=wrap;connectable=0;fillColor=none;top=0;left=0;bottom=0;right=0;overflow=hidden;fontSize=16;" parent="168" vertex="1">
                    <mxGeometry x="180" width="180" height="94" as="geometry"/>
                </mxCell>
                <mxCell id="171" value="" style="shape=partialRectangle;html=1;whiteSpace=wrap;connectable=0;fillColor=none;top=0;left=0;bottom=0;right=0;overflow=hidden;fontSize=16;" parent="168" vertex="1">
                    <mxGeometry x="360" width="180" height="94" as="geometry"/>
                </mxCell>
                <mxCell id="173" value="泊松定理" style="rounded=0;whiteSpace=wrap;html=1;fillColor=#fa6800;strokeColor=#C73500;fontColor=#ffffff;" parent="1" vertex="1">
                    <mxGeometry x="-1680" y="-580" width="120" height="60" as="geometry"/>
                </mxCell>
                <mxCell id="174" value="考点" style="shape=table;html=1;whiteSpace=wrap;startSize=50;container=1;collapsible=0;childLayout=tableLayout;fixedRows=1;rowLines=0;fontStyle=1;align=center;fontSize=30;direction=west;flipH=0;flipV=1;" parent="1" vertex="1">
                    <mxGeometry x="-3690" y="-330" width="400" height="700" as="geometry"/>
                </mxCell>
                <mxCell id="178" value="" style="shape=partialRectangle;html=1;whiteSpace=wrap;collapsible=0;dropTarget=0;pointerEvents=0;fillColor=none;top=0;left=0;bottom=0;right=0;points=[[0,0.5],[1,0.5]];portConstraint=eastwest;fontSize=30;" parent="174" vertex="1">
                    <mxGeometry y="50" width="400" height="40" as="geometry"/>
                </mxCell>
                <mxCell id="179" value="1" style="shape=partialRectangle;html=1;whiteSpace=wrap;connectable=0;fillColor=none;top=0;left=0;bottom=0;right=0;overflow=hidden;fontSize=30;" parent="178" vertex="1">
                    <mxGeometry width="89" height="40" as="geometry"/>
                </mxCell>
                <mxCell id="180" value="样本空间" style="shape=partialRectangle;html=1;whiteSpace=wrap;connectable=0;fillColor=none;top=0;left=0;bottom=0;right=0;align=left;spacingLeft=6;overflow=hidden;fontSize=30;" parent="178" vertex="1">
                    <mxGeometry x="89" width="311" height="40" as="geometry"/>
                </mxCell>
                <mxCell id="205" style="shape=partialRectangle;html=1;whiteSpace=wrap;collapsible=0;dropTarget=0;pointerEvents=0;fillColor=none;top=0;left=0;bottom=1;right=0;points=[[0,0.5],[1,0.5]];portConstraint=eastwest;fontSize=30;" parent="174" vertex="1">
                    <mxGeometry y="90" width="400" height="50" as="geometry"/>
                </mxCell>
                <mxCell id="206" style="shape=partialRectangle;html=1;whiteSpace=wrap;connectable=0;fillColor=none;top=0;left=0;bottom=0;right=0;overflow=hidden;fontSize=30;" parent="205" vertex="1">
                    <mxGeometry width="89" height="50" as="geometry"/>
                </mxCell>
                <mxCell id="207" value="独立重复试验" style="shape=partialRectangle;html=1;whiteSpace=wrap;connectable=0;fillColor=none;top=0;left=0;bottom=0;right=0;align=left;spacingLeft=6;overflow=hidden;fontSize=30;" parent="205" vertex="1">
                    <mxGeometry x="89" width="311" height="50" as="geometry"/>
                </mxCell>
                <mxCell id="208" style="shape=partialRectangle;html=1;whiteSpace=wrap;collapsible=0;dropTarget=0;pointerEvents=0;fillColor=none;top=0;left=0;bottom=1;right=0;points=[[0,0.5],[1,0.5]];portConstraint=eastwest;fontSize=30;" parent="174" vertex="1">
                    <mxGeometry y="140" width="400" height="150" as="geometry"/>
                </mxCell>
                <mxCell id="209" style="shape=partialRectangle;html=1;whiteSpace=wrap;connectable=0;fillColor=none;top=0;left=0;bottom=0;right=0;overflow=hidden;fontSize=30;" parent="208" vertex="1">
                    <mxGeometry width="89" height="150" as="geometry"/>
                </mxCell>
                <mxCell id="210" value="事件独立性" style="shape=partialRectangle;html=1;whiteSpace=wrap;connectable=0;fillColor=none;top=0;left=0;bottom=0;right=0;align=left;spacingLeft=6;overflow=hidden;fontSize=30;flipH=0;flipV=1;direction=north;" parent="208" vertex="1">
                    <mxGeometry x="89" width="311" height="150" as="geometry"/>
                </mxCell>
                <mxCell id="181" value="" style="shape=partialRectangle;html=1;whiteSpace=wrap;collapsible=0;dropTarget=0;pointerEvents=0;fillColor=none;top=0;left=0;bottom=0;right=0;points=[[0,0.5],[1,0.5]];portConstraint=eastwest;fontSize=30;" parent="174" vertex="1">
                    <mxGeometry y="290" width="400" height="40" as="geometry"/>
                </mxCell>
                <mxCell id="182" value="3" style="shape=partialRectangle;html=1;whiteSpace=wrap;connectable=0;fillColor=none;top=0;left=0;bottom=0;right=0;overflow=hidden;fontSize=30;" parent="181" vertex="1">
                    <mxGeometry width="89" height="40" as="geometry"/>
                </mxCell>
                <mxCell id="183" value="Value 3" style="shape=partialRectangle;html=1;whiteSpace=wrap;connectable=0;fillColor=none;top=0;left=0;bottom=0;right=0;align=left;spacingLeft=6;overflow=hidden;fontSize=30;" parent="181" vertex="1">
                    <mxGeometry x="89" width="311" height="40" as="geometry"/>
                </mxCell>
                <mxCell id="220" value="" style="shape=partialRectangle;html=1;whiteSpace=wrap;collapsible=0;dropTarget=0;pointerEvents=0;fillColor=none;top=0;left=0;bottom=1;right=0;points=[[0,0.5],[1,0.5]];portConstraint=eastwest;fontSize=30;" parent="174" vertex="1">
                    <mxGeometry y="330" width="400" height="50" as="geometry"/>
                </mxCell>
                <mxCell id="221" value="3" style="shape=partialRectangle;html=1;whiteSpace=wrap;connectable=0;fillColor=none;top=0;left=0;bottom=0;right=0;overflow=hidden;fontSize=30;" parent="220" vertex="1">
                    <mxGeometry width="89" height="50" as="geometry"/>
                </mxCell>
                <mxCell id="222" value="概率&amp;amp;条件概率的概念" style="shape=partialRectangle;html=1;whiteSpace=wrap;connectable=0;fillColor=none;top=0;left=0;bottom=0;right=0;align=left;spacingLeft=6;overflow=hidden;fontSize=30;" parent="220" vertex="1">
                    <mxGeometry x="89" width="311" height="50" as="geometry"/>
                </mxCell>
                <mxCell id="175" value="" style="shape=partialRectangle;html=1;whiteSpace=wrap;collapsible=0;dropTarget=0;pointerEvents=0;fillColor=none;top=0;left=0;bottom=1;right=0;points=[[0,0.5],[1,0.5]];portConstraint=eastwest;fontSize=30;" parent="174" vertex="1">
                    <mxGeometry y="380" width="400" height="50" as="geometry"/>
                </mxCell>
                <mxCell id="176" value="2" style="shape=partialRectangle;html=1;whiteSpace=wrap;connectable=0;fillColor=none;top=0;left=0;bottom=0;right=0;overflow=hidden;fontSize=30;" parent="175" vertex="1">
                    <mxGeometry width="89" height="50" as="geometry"/>
                </mxCell>
                <mxCell id="177" value="随机事件" style="shape=partialRectangle;html=1;whiteSpace=wrap;connectable=0;fillColor=none;top=0;left=0;bottom=0;right=0;align=left;spacingLeft=6;overflow=hidden;fontSize=30;" parent="175" vertex="1">
                    <mxGeometry x="89" width="311" height="50" as="geometry"/>
                </mxCell>
                <mxCell id="202" style="shape=partialRectangle;html=1;whiteSpace=wrap;collapsible=0;dropTarget=0;pointerEvents=0;fillColor=none;top=0;left=0;bottom=1;right=0;points=[[0,0.5],[1,0.5]];portConstraint=eastwest;fontSize=30;" parent="174" vertex="1">
                    <mxGeometry y="430" width="400" height="50" as="geometry"/>
                </mxCell>
                <mxCell id="203" style="shape=partialRectangle;html=1;whiteSpace=wrap;connectable=0;fillColor=none;top=0;left=0;bottom=0;right=0;overflow=hidden;fontSize=30;" parent="202" vertex="1">
                    <mxGeometry width="89" height="50" as="geometry"/>
                </mxCell>
                <mxCell id="204" value="几何概型 &amp;amp; 古典概型" style="shape=partialRectangle;html=1;whiteSpace=wrap;connectable=0;fillColor=none;top=0;left=0;bottom=0;right=0;align=left;spacingLeft=6;overflow=hidden;fontSize=30;" parent="202" vertex="1">
                    <mxGeometry x="89" width="311" height="50" as="geometry"/>
                </mxCell>
                <mxCell id="199" style="shape=partialRectangle;html=1;whiteSpace=wrap;collapsible=0;dropTarget=0;pointerEvents=0;fillColor=none;top=0;left=0;bottom=1;right=0;points=[[0,0.5],[1,0.5]];portConstraint=eastwest;fontSize=30;" parent="174" vertex="1">
                    <mxGeometry y="480" width="400" height="50" as="geometry"/>
                </mxCell>
                <mxCell id="200" style="shape=partialRectangle;html=1;whiteSpace=wrap;connectable=0;fillColor=none;top=0;left=0;bottom=0;right=0;overflow=hidden;fontSize=30;" parent="199" vertex="1">
                    <mxGeometry width="89" height="50" as="geometry"/>
                </mxCell>
                <mxCell id="201" style="shape=partialRectangle;html=1;whiteSpace=wrap;connectable=0;fillColor=none;top=0;left=0;bottom=0;right=0;align=left;spacingLeft=6;overflow=hidden;fontSize=30;" parent="199" vertex="1">
                    <mxGeometry x="89" width="311" height="50" as="geometry"/>
                </mxCell>
                <mxCell id="196" style="shape=partialRectangle;html=1;whiteSpace=wrap;collapsible=0;dropTarget=0;pointerEvents=0;fillColor=none;top=0;left=0;bottom=1;right=0;points=[[0,0.5],[1,0.5]];portConstraint=eastwest;fontSize=30;" parent="174" vertex="1">
                    <mxGeometry y="530" width="400" height="50" as="geometry"/>
                </mxCell>
                <mxCell id="197" style="shape=partialRectangle;html=1;whiteSpace=wrap;connectable=0;fillColor=none;top=0;left=0;bottom=0;right=0;overflow=hidden;fontSize=30;" parent="196" vertex="1">
                    <mxGeometry width="89" height="50" as="geometry"/>
                </mxCell>
                <mxCell id="198" style="shape=partialRectangle;html=1;whiteSpace=wrap;connectable=0;fillColor=none;top=0;left=0;bottom=0;right=0;align=left;spacingLeft=6;overflow=hidden;fontSize=30;" parent="196" vertex="1">
                    <mxGeometry x="89" width="311" height="50" as="geometry"/>
                </mxCell>
                <mxCell id="193" style="shape=partialRectangle;html=1;whiteSpace=wrap;collapsible=0;dropTarget=0;pointerEvents=0;fillColor=none;top=0;left=0;bottom=1;right=0;points=[[0,0.5],[1,0.5]];portConstraint=eastwest;fontSize=30;" parent="174" vertex="1">
                    <mxGeometry y="580" width="400" height="50" as="geometry"/>
                </mxCell>
                <mxCell id="194" style="shape=partialRectangle;html=1;whiteSpace=wrap;connectable=0;fillColor=none;top=0;left=0;bottom=0;right=0;overflow=hidden;fontSize=30;" parent="193" vertex="1">
                    <mxGeometry width="89" height="50" as="geometry"/>
                </mxCell>
                <mxCell id="195" style="shape=partialRectangle;html=1;whiteSpace=wrap;connectable=0;fillColor=none;top=0;left=0;bottom=0;right=0;align=left;spacingLeft=6;overflow=hidden;fontSize=30;" parent="193" vertex="1">
                    <mxGeometry x="89" width="311" height="50" as="geometry"/>
                </mxCell>
                <mxCell id="223" value="无记忆性的分布" style="rounded=0;whiteSpace=wrap;html=1;fontSize=36;fillColor=#e51400;strokeColor=#B20000;fontColor=#ffffff;" vertex="1" parent="1">
                    <mxGeometry x="-3390" y="-621" width="340" height="121" as="geometry"/>
                </mxCell>
            </root>
        </mxGraphModel>
    </diagram>
</mxfile>